<?xml version="1.0" encoding="UTF-8"?>
<svg width="32px" height="24px" viewBox="0 0 32 24" version="1.1" xmlns="http://www.w3.org/2000/svg" xmlns:xlink="http://www.w3.org/1999/xlink">
    <!-- Generator: Sketch 40.3 (33839) - http://www.bohemiancoding.com/sketch -->
    <title>menu</title>
    <desc>Created with Sketch.</desc>
    <defs></defs>
    <g id="Page-1" stroke="none" stroke-width="1" fill="none" fill-rule="evenodd">
        <g id="Mobile" transform="translate(-359.000000, -21.000000)" fill="#FFFFFF">
            <g id="HERO-SECTION" transform="translate(-417.000000, 1.000000)">
                <path d="M807,23.0039062 L777,23.0039062 C776.726561,23.0039062 776.492188,22.906251 776.296875,22.7109375 C776.101562,22.515624 776.003906,22.2812514 776.003906,22.0078125 C776.003906,21.7213527 776.101562,21.4804697 776.296875,21.2851562 C776.492188,21.0898428 776.726561,20.9921875 777,20.9921875 L807,20.9921875 C807.273439,20.9921875 807.507812,21.0898428 807.703125,21.2851562 C807.898438,21.4804697 807.996094,21.7213527 807.996094,22.0078125 C807.996094,22.2812514 807.898438,22.515624 807.703125,22.7109375 C807.507812,22.906251 807.273439,23.0039062 807,23.0039062 L807,23.0039062 Z M807,33.0039062 L777,33.0039062 C776.726561,33.0039062 776.492188,32.906251 776.296875,32.7109375 C776.101562,32.515624 776.003906,32.2812514 776.003906,32.0078125 C776.003906,31.7213527 776.101562,31.4804697 776.296875,31.2851562 C776.492188,31.0898428 776.726561,30.9921875 777,30.9921875 L807,30.9921875 C807.273439,30.9921875 807.507812,31.0898428 807.703125,31.2851562 C807.898438,31.4804697 807.996094,31.7213527 807.996094,32.0078125 C807.996094,32.2812514 807.898438,32.515624 807.703125,32.7109375 C807.507812,32.906251 807.273439,33.0039062 807,33.0039062 L807,33.0039062 Z M807,43.0039062 L777,43.0039062 C776.726561,43.0039062 776.492188,42.906251 776.296875,42.7109375 C776.101562,42.515624 776.003906,42.2812514 776.003906,42.0078125 C776.003906,41.7213527 776.101562,41.4804697 776.296875,41.2851562 C776.492188,41.0898428 776.726561,40.9921875 777,40.9921875 L807,40.9921875 C807.273439,40.9921875 807.507812,41.0898428 807.703125,41.2851562 C807.898438,41.4804697 807.996094,41.7213527 807.996094,42.0078125 C807.996094,42.2812514 807.898438,42.515624 807.703125,42.7109375 C807.507812,42.906251 807.273439,43.0039062 807,43.0039062 L807,43.0039062 Z" id="menu"></path>
            </g>
        </g>
    </g>
</svg>