<?xml version="1.0" encoding="UTF-8"?>
<svg width="14px" height="13px" viewBox="0 0 14 13" version="1.1" xmlns="http://www.w3.org/2000/svg" xmlns:xlink="http://www.w3.org/1999/xlink">
    <!-- Generator: Sketch 39.1 (31720) - http://www.bohemiancoding.com/sketch -->
    <title>cancel</title>
    <desc>Created with Sketch.</desc>
    <defs></defs>
    <g id="Page-1" stroke="none" stroke-width="1" fill="none" fill-rule="evenodd" opacity="0.65339319">
        <g id="Mobile---Cast-Slider-Pop-Up-(Portrait)" transform="translate(-374.000000, -16.000000)" fill="#FFFFFF">
            <g id="Top-Bar" transform="translate(1.000000, 1.000000)">
                <path d="M380.703125,21.5039062 L386.357422,15.8496094 C386.455079,15.7519526 386.503906,15.6347663 386.503906,15.4980469 C386.503906,15.3613274 386.455079,15.2441411 386.357422,15.1464844 C386.259765,15.0488276 386.140951,15 386.000977,15 C385.861002,15 385.742188,15.0488276 385.644531,15.1464844 L380,20.7910156 L374.355469,15.1464844 C374.257812,15.0488276 374.138998,15 373.999023,15 C373.859049,15 373.740235,15.0488276 373.642578,15.1464844 C373.544921,15.2441411 373.496094,15.3613274 373.496094,15.4980469 C373.496094,15.6347663 373.544921,15.7519526 373.642578,15.8496094 L379.296875,21.5039062 L373.642578,27.1484375 C373.544921,27.2460942 373.496094,27.3632806 373.496094,27.5 C373.496094,27.6367194 373.544921,27.7539058 373.642578,27.8515625 C373.694662,27.9036461 373.751627,27.9410806 373.813477,27.9638672 C373.875326,27.9866538 373.938802,27.9980469 374.003906,27.9980469 C374.0625,27.9980469 374.122721,27.9866538 374.18457,27.9638672 C374.24642,27.9410806 374.303385,27.9036461 374.355469,27.8515625 L380,22.2070312 L385.644531,27.8515625 C385.696615,27.9036461 385.75358,27.9410806 385.81543,27.9638672 C385.877279,27.9866538 385.9375,27.9980469 385.996094,27.9980469 C386.061198,27.9980469 386.124674,27.9866538 386.186523,27.9638672 C386.248373,27.9410806 386.305338,27.9036461 386.357422,27.8515625 C386.455079,27.7539058 386.503906,27.6367194 386.503906,27.5 C386.503906,27.3632806 386.455079,27.2460942 386.357422,27.1484375 L380.703125,21.5039062 Z" id="cancel"></path>
            </g>
        </g>
    </g>
</svg>