<?xml version="1.0" encoding="UTF-8"?>
<svg width="15px" height="14px" viewBox="0 0 15 14" version="1.1" xmlns="http://www.w3.org/2000/svg" xmlns:xlink="http://www.w3.org/1999/xlink">
    <!-- Generator: Sketch 40.3 (33839) - http://www.bohemiancoding.com/sketch -->
    <title>cancel</title>
    <desc>Created with Sketch.</desc>
    <defs></defs>
    <g id="Page-1" stroke="none" stroke-width="1" fill="none" fill-rule="evenodd" opacity="0.282357743">
        <g id="Purchase-Modal" transform="translate(-888.000000, -178.000000)" fill="#000000">
            <path d="M895.953906,185.079102 L901.890918,179.14209 C901.993458,179.03955 902.044727,178.916505 902.044727,178.772949 C902.044727,178.629394 901.993458,178.506348 901.890918,178.403809 C901.788378,178.301269 901.663624,178.25 901.51665,178.25 C901.369677,178.25 901.244922,178.301269 901.142383,178.403809 L895.215625,184.330566 L889.288867,178.403809 C889.186328,178.301269 889.061573,178.25 888.9146,178.25 C888.767626,178.25 888.642872,178.301269 888.540332,178.403809 C888.437792,178.506348 888.386523,178.629394 888.386523,178.772949 C888.386523,178.916505 888.437792,179.03955 888.540332,179.14209 L894.477344,185.079102 L888.540332,191.005859 C888.437792,191.108399 888.386523,191.231445 888.386523,191.375 C888.386523,191.518555 888.437792,191.641601 888.540332,191.744141 C888.59502,191.798828 888.654834,191.838135 888.719775,191.862061 C888.784717,191.885986 888.851367,191.897949 888.919727,191.897949 C888.98125,191.897949 889.044482,191.885986 889.109424,191.862061 C889.174366,191.838135 889.234179,191.798828 889.288867,191.744141 L895.215625,185.817383 L901.142383,191.744141 C901.197071,191.798828 901.256884,191.838135 901.321826,191.862061 C901.386768,191.885986 901.45,191.897949 901.511523,191.897949 C901.579883,191.897949 901.646533,191.885986 901.711475,191.862061 C901.776416,191.838135 901.83623,191.798828 901.890918,191.744141 C901.993458,191.641601 902.044727,191.518555 902.044727,191.375 C902.044727,191.231445 901.993458,191.108399 901.890918,191.005859 L895.953906,185.079102 Z" id="cancel"></path>
        </g>
    </g>
</svg>