<?xml version="1.0" encoding="UTF-8"?>
<svg width="30px" height="30px" viewBox="0 0 30 30" version="1.1" xmlns="http://www.w3.org/2000/svg" xmlns:xlink="http://www.w3.org/1999/xlink">
    <!-- Generator: Sketch 40.2 (33826) - http://www.bohemiancoding.com/sketch -->
    <title>Facebook</title>
    <desc>Created with Sketch.</desc>
    <defs></defs>
    <g id="Page-1" stroke="none" stroke-width="1" fill="none" fill-rule="evenodd">
        <g id="Homepage-(Quote-1)-Copy" transform="translate(-937.000000, -1581.000000)">
            <g id="Cast-Slider---Open" transform="translate(-49.000000, 1550.000000)">
                <g id="Social" transform="translate(985.000000, 30.000000)">
                    <g id="Facebook" transform="translate(0.909091, 0.363636)">
                        <path d="M0.0909090909,15.6363636 C0.0909090909,7.35209239 6.80481636,0.636363636 15.0909091,0.636363636 L15.0909091,0.636363636 C23.3751803,0.636363636 30.0909091,7.35027091 30.0909091,15.6363636 L30.0909091,15.6363636 C30.0909091,23.9206349 23.3770018,30.6363636 15.0909091,30.6363636 L15.0909091,30.6363636 C6.80663784,30.6363636 0.0909090909,23.9224564 0.0909090909,15.6363636 L0.0909090909,15.6363636 Z" id="Rectangle-3-Copy-27" fill="#3B5998"></path>
                        <path d="M12.7521948,10.2978395 L12.7521948,12.6418191 L11.0001169,12.6418191 L11.0001169,15.5087834 L12.7521948,15.5087834 L12.7521948,24.0271902 L16.3516104,24.0271902 L16.3516104,15.5087834 L18.767,15.5087834 C18.767,15.5087834 18.9931688,14.1340153 19.103039,12.6315083 L16.3650519,12.6315083 L16.3650519,10.6713182 C16.3650519,10.3786071 16.7577792,9.98450696 17.1458312,9.98450696 L19.1071299,9.98450696 L19.1071299,7.00011456 L16.4404416,7.00011456 C12.6633636,7.00011456 12.7521948,9.86937013 12.7521948,10.2978395" id="Fill-1" fill="#FFFFFF"></path>
                    </g>
                </g>
            </g>
        </g>
    </g>
</svg>