<?xml version="1.0" encoding="UTF-8"?>
<svg width="30px" height="31px" viewBox="0 0 30 31" version="1.1" xmlns="http://www.w3.org/2000/svg" xmlns:xlink="http://www.w3.org/1999/xlink">
    <!-- Generator: Sketch 40.2 (33826) - http://www.bohemiancoding.com/sketch -->
    <title>Instagram</title>
    <desc>Created with Sketch.</desc>
    <defs>
        <rect id="path-1" x="0" y="0" width="30" height="30" rx="15"></rect>
        <linearGradient x1="17.9393583%" y1="15.465716%" x2="83.1623559%" y2="85.2036559%" id="linearGradient-3">
            <stop stop-color="#395DFA" offset="0%"></stop>
            <stop stop-color="#544CED" offset="21.6534791%"></stop>
            <stop stop-color="#903ACD" offset="44.7643908%"></stop>
            <stop stop-color="#D53592" offset="68.3389075%"></stop>
            <stop stop-color="#F4306D" offset="100%"></stop>
        </linearGradient>
        <filter x="-50%" y="-50%" width="200%" height="200%" filterUnits="objectBoundingBox" id="filter-4">
            <feGaussianBlur stdDeviation="10" in="SourceGraphic"></feGaussianBlur>
        </filter>
        <filter x="-50%" y="-50%" width="200%" height="200%" filterUnits="objectBoundingBox" id="filter-5">
            <feGaussianBlur stdDeviation="50" in="SourceGraphic"></feGaussianBlur>
        </filter>
        <filter x="-50%" y="-50%" width="200%" height="200%" filterUnits="objectBoundingBox" id="filter-6">
            <feGaussianBlur stdDeviation="24" in="SourceGraphic"></feGaussianBlur>
        </filter>
        <filter x="-50%" y="-50%" width="200%" height="200%" filterUnits="objectBoundingBox" id="filter-7">
            <feGaussianBlur stdDeviation="21.2742417" in="SourceGraphic"></feGaussianBlur>
        </filter>
        <filter x="-50%" y="-50%" width="200%" height="200%" filterUnits="objectBoundingBox" id="filter-8">
            <feGaussianBlur stdDeviation="24" in="SourceGraphic"></feGaussianBlur>
        </filter>
        <filter x="-50%" y="-50%" width="200%" height="200%" filterUnits="objectBoundingBox" id="filter-9">
            <feGaussianBlur stdDeviation="48.3824678" in="SourceGraphic"></feGaussianBlur>
        </filter>
    </defs>
    <g id="Page-1" stroke="none" stroke-width="1" fill="none" fill-rule="evenodd">
        <g id="Homepage-(Quote-1)-Copy" transform="translate(-937.000000, -1662.000000)">
            <g id="Cast-Slider---Open" transform="translate(-49.000000, 1550.000000)">
                <g id="Social" transform="translate(985.000000, 30.000000)">
                    <g id="Instagram" transform="translate(0.363636, 82.181818)">
                        <g id="Group-3" transform="translate(0.000000, 0.282420)">
                            <g id="Color-background" transform="translate(0.636364, 0.353943)">
                                <mask id="mask-2" fill="white">
                                    <use xlink:href="#path-1"></use>
                                </mask>
                                <use id="round-shape" fill="#C5C5C5" xlink:href="#path-1"></use>
                                <ellipse id="bottom" fill="url(#linearGradient-3)" filter="url(#filter-4)" mask="url(#mask-2)" cx="15.2884615" cy="14.3269231" rx="19.1346154" ry="19.1346154"></ellipse>
                                <ellipse id="Oval-12" fill="#F8443E" filter="url(#filter-5)" mask="url(#mask-2)" cx="9.85576923" cy="26.9711538" rx="16.0096154" ry="16.0096154"></ellipse>
                                <ellipse id="Oval-13" fill="#F86737" filter="url(#filter-6)" mask="url(#mask-2)" cx="10.0711538" cy="25.4634615" rx="13.2211538" ry="13.2211538"></ellipse>
                                <circle id="Oval-13" fill="#F88330" filter="url(#filter-7)" mask="url(#mask-2)" cx="9.75961538" cy="29.8557692" r="11.0096154"></circle>
                                <ellipse id="Oval-13" fill="#FBBB45" filter="url(#filter-8)" mask="url(#mask-2)" cx="9.75961538" cy="31.1057692" rx="9.75961538" ry="9.75961538"></ellipse>
                                <ellipse id="Oval-13" fill="#FBE18A" filter="url(#filter-9)" mask="url(#mask-2)" cx="9.66346154" cy="32.3557692" rx="8.50961538" ry="8.50961538"></ellipse>
                            </g>
                            <path d="M15.5010235,7.26682197 C13.1920499,7.26682197 12.902871,7.27670833 11.9963314,7.31735227 C11.0914633,7.35799621 10.4735455,7.49970076 9.93251906,7.70676515 C9.37366276,7.9209697 8.89949853,8.20767424 8.42700587,8.67343182 C7.95395601,9.13918939 7.66366276,9.6065947 7.4463607,10.1574848 C7.23630205,10.6907992 7.09254839,11.2999091 7.05131672,12.1918788 C7.00952786,13.0854962 7.00005572,13.370553 7.00005572,15.6466136 C7.00005572,17.9226742 7.00952786,18.2077311 7.05131672,19.1018977 C7.09254839,19.9938674 7.23630205,20.6029773 7.4463607,21.1357424 C7.66366276,21.6866326 7.95395601,22.1540379 8.42700587,22.6197955 C8.89949853,23.0861023 9.37366276,23.3722576 9.93251906,23.5864621 C10.4735455,23.7935265 11.0914633,23.9352311 11.9963314,23.975875 C12.902871,24.0170682 13.1920499,24.0264053 15.5010235,24.0264053 C17.8099971,24.0264053 18.099176,24.0170682 19.0057155,23.975875 C19.9105836,23.9352311 20.5285015,23.7935265 21.0695279,23.5864621 C21.6283842,23.3722576 22.1025484,23.0861023 22.5750411,22.6197955 C23.0480909,22.1540379 23.3383842,21.6866326 23.5556862,21.1357424 C23.7657449,20.6029773 23.9094985,19.9938674 23.9507302,19.1018977 C23.9925191,18.2077311 24.0019912,17.9226742 24.0019912,15.6466136 C24.0019912,13.3711023 23.9925191,13.0854962 23.9507302,12.1918788 C23.9094985,11.2999091 23.7657449,10.6907992 23.5556862,10.1574848 C23.3383842,9.6065947 23.0480909,9.13918939 22.5750411,8.67343182 C22.1025484,8.20767424 21.6283842,7.9209697 21.0695279,7.70676515 C20.5285015,7.49970076 19.9105836,7.35799621 19.0057155,7.31735227 C18.099176,7.27670833 17.8099971,7.26682197 15.5010235,7.26682197 M15.5010235,8.77668939 C17.7709941,8.77668939 18.0395572,8.78547727 18.9360674,8.82557197 C19.7651584,8.86292045 20.2153636,8.99913258 20.5145718,9.11392424 C20.9112874,9.26606439 21.1948944,9.44786364 21.4918739,9.74115909 C21.7894106,10.0339053 21.9738387,10.3134697 22.1281789,10.7045303 C22.2446305,11.0000227 22.3828123,11.4432614 22.4207009,12.2605341 C22.4619326,13.1442652 22.4702903,13.409 22.4702903,15.6466136 C22.4702903,17.8842273 22.4619326,18.1489621 22.4207009,19.0326932 C22.3828123,19.8499659 22.2446305,20.2937538 22.1281789,20.588697 C21.9738387,20.9797576 21.7894106,21.259322 21.4924311,21.5526174 C21.1948944,21.8453636 20.9112874,22.0271629 20.5145718,22.179303 C20.2153636,22.2940947 19.7651584,22.4303068 18.9360674,22.4676553 C18.0401144,22.5082992 17.7709941,22.5165379 15.5010235,22.5165379 C13.2310528,22.5165379 12.9619326,22.5082992 12.0659795,22.4676553 C11.2368886,22.4303068 10.7866833,22.2940947 10.4874751,22.179303 C10.0907595,22.0271629 9.80715249,21.8453636 9.51017302,21.5526174 C9.21263636,21.259322 9.02820821,20.9797576 8.87386804,20.588697 C8.75741642,20.2937538 8.6192346,19.8499659 8.58134604,19.0326932 C8.54011437,18.1489621 8.5317566,17.8842273 8.5317566,15.6466136 C8.5317566,13.409 8.54011437,13.1442652 8.58134604,12.2605341 C8.6192346,11.4432614 8.75741642,11.0000227 8.87386804,10.7045303 C9.02820821,10.3134697 9.21263636,10.0339053 9.50961584,9.74115909 C9.80715249,9.44786364 10.0907595,9.26606439 10.4874751,9.11392424 C10.7866833,8.99913258 11.2368886,8.86292045 12.0659795,8.82557197 C12.9624897,8.78547727 13.2310528,8.77668939 15.5010235,8.77668939" id="Fill-1" fill="#FFFFFF"></path>
                        </g>
                        <path d="M15.5010235,18.7223712 C13.9358915,18.7223712 12.6671818,17.4717462 12.6671818,15.9289242 C12.6671818,14.3866515 13.9358915,13.1360265 15.5010235,13.1360265 C17.0661554,13.1360265 18.3348651,14.3866515 18.3348651,15.9289242 C18.3348651,17.4717462 17.0661554,18.7223712 15.5010235,18.7223712 M15.5010235,11.6261591 C13.090085,11.6261591 11.1354809,13.5523523 11.1354809,15.9289242 C11.1354809,18.3054962 13.090085,20.2322386 15.5010235,20.2322386 C17.9119619,20.2322386 19.866566,18.3054962 19.866566,15.9289242 C19.866566,13.5523523 17.9119619,11.6261591 15.5010235,11.6261591" id="Fill-4" fill="#FFFFFF"></path>
                        <path d="M21.0589971,11.4558939 C21.0589971,12.011178 20.6021056,12.4615568 20.0387918,12.4615568 C19.475478,12.4615568 19.0185865,12.011178 19.0185865,11.4558939 C19.0185865,10.9006098 19.475478,10.4502311 20.0387918,10.4502311 C20.6021056,10.4502311 21.0589971,10.9006098 21.0589971,11.4558939" id="Fill-6" fill="#FFFFFF"></path>
                    </g>
                </g>
            </g>
        </g>
    </g>
</svg>