<?xml version="1.0" encoding="UTF-8"?>
<svg width="43px" height="42px" viewBox="0 0 43 42" version="1.1" xmlns="http://www.w3.org/2000/svg" xmlns:xlink="http://www.w3.org/1999/xlink">
    <!-- Generator: Sketch 39.1 (31720) - http://www.bohemiancoding.com/sketch -->
    <title>Instagram</title>
    <desc>Created with Sketch.</desc>
    <defs></defs>
    <g id="Page-1" stroke="none" stroke-width="1" fill="none" fill-rule="evenodd">
        <g id="Homepage-(Quote-3)" transform="translate(-1073.000000, -2910.000000)" fill="#FFFFFF">
            <g id="SOCIAL-SECTION" transform="translate(-53.000000, 2414.000000)">
                <g id="Social-Icons" transform="translate(1002.000000, 496.000000)">
                    <g id="Instagram" transform="translate(124.000000, 0.000000)">
                        <g id="Group-3">
                            <path d="M21.2310914,0.014743648 C15.4644881,0.014743648 14.7422712,0.0392314103 12.4782114,0.139903322 C10.2183264,0.240575233 8.67509206,0.591566492 7.3238923,1.10444907 C5.92816279,1.63501725 4.74394962,2.34516235 3.56391111,3.49880804 C2.38248105,4.65245373 1.65748098,5.81018071 1.11477459,7.17469324 C0.59015841,8.49567197 0.23113726,10.0043902 0.128162201,12.2137305 C0.0237955878,14.4271522 0.000139155485,15.133216 0.000139155485,20.770843 C0.000139155485,26.40847 0.0237955878,27.1145339 0.128162201,29.3293159 C0.23113726,31.5386562 0.59015841,33.0473745 1.11477459,34.3669928 C1.65748098,35.7315053 2.38248105,36.8892323 3.56391111,38.042878 C4.74394962,39.1978841 5.92816279,39.9066688 7.3238923,40.4372369 C8.67509206,40.9501195 10.2183264,41.3011108 12.4782114,41.4017827 C14.7422712,41.503815 15.4644881,41.5269424 21.2310914,41.5269424 C26.9976947,41.5269424 27.7199117,41.503815 29.9839714,41.4017827 C32.2438565,41.3011108 33.7870908,40.9501195 35.1382905,40.4372369 C36.53402,39.9066688 37.7182332,39.1978841 38.8982717,38.042878 C40.0797018,36.8892323 40.8047019,35.7315053 41.3474083,34.3669928 C41.8720244,33.0473745 42.2310456,31.5386562 42.3340206,29.3293159 C42.4383873,27.1145339 42.4620437,26.40847 42.4620437,20.770843 C42.4620437,15.1345764 42.4383873,14.4271522 42.3340206,12.2137305 C42.2310456,10.0043902 41.8720244,8.49567197 41.3474083,7.17469324 C40.8047019,5.81018071 40.0797018,4.65245373 38.8982717,3.49880804 C37.7182332,2.34516235 36.53402,1.63501725 35.1382905,1.10444907 C33.7870908,0.591566492 32.2438565,0.240575233 29.9839714,0.139903322 C27.7199117,0.0392314103 26.9976947,0.014743648 21.2310914,0.014743648 M21.2310914,3.75456911 C26.9002859,3.75456911 27.5710153,3.77633601 29.810027,3.87564749 C31.8806606,3.96815682 33.005037,4.30554376 33.7523019,4.58987389 C34.743089,4.96671334 35.4513904,5.41701608 36.1930891,6.14348636 C36.9361794,6.86859621 37.3967841,7.56105571 37.7822447,8.52968275 C38.0730797,9.26159476 38.4181853,10.3594628 38.512811,12.3837844 C38.6157861,14.5727183 38.6366594,15.2284462 38.6366594,20.770843 C38.6366594,26.3132399 38.6157861,26.9689677 38.512811,29.1579016 C38.4181853,31.1822233 38.0730797,32.2814517 37.7822447,33.0120033 C37.3967841,33.9806303 36.9361794,34.6730898 36.1944807,35.3995601 C35.4513904,36.1246699 34.743089,36.5749727 33.7523019,36.9518121 C33.005037,37.2361422 31.8806606,37.5735292 29.810027,37.6660385 C27.5724068,37.7667104 26.9002859,37.7871169 21.2310914,37.7871169 C15.561897,37.7871169 14.889776,37.7667104 12.6521558,37.6660385 C10.5815222,37.5735292 9.45714588,37.2361422 8.70988093,36.9518121 C7.71909388,36.5749727 7.01079246,36.1246699 6.26909373,35.3995601 C5.52600344,34.6730898 5.06539879,33.9806303 4.6799381,33.0120033 C4.38910314,32.2814517 4.04399753,31.1822233 3.9493718,29.1579016 C3.84639675,26.9689677 3.82552342,26.3132399 3.82552342,20.770843 C3.82552342,15.2284462 3.84639675,14.5727183 3.9493718,12.3837844 C4.04399753,10.3594628 4.38910314,9.26159476 4.6799381,8.52968275 C5.06539879,7.56105571 5.52600344,6.86859621 6.26770218,6.14348636 C7.01079246,5.41701608 7.71909388,4.96671334 8.70988093,4.58987389 C9.45714588,4.30554376 10.5815222,3.96815682 12.6521558,3.87564749 C14.8911675,3.77633601 15.561897,3.75456911 21.2310914,3.75456911" id="Fill-1"></path>
                        </g>
                        <path d="M21.2285354,30.1197632 C17.1992655,30.1197632 13.933104,26.8802722 13.933104,22.883904 C13.933104,18.8889586 17.1992655,15.6494676 21.2285354,15.6494676 C25.2578052,15.6494676 28.5239667,18.8889586 28.5239667,22.883904 C28.5239667,26.8802722 25.2578052,30.1197632 21.2285354,30.1197632 M21.2285354,11.7384615 C15.0218245,11.7384615 9.98989899,16.7278752 9.98989899,22.883904 C9.98989899,29.0399328 15.0218245,34.0307692 21.2285354,34.0307692 C27.4352462,34.0307692 32.4671717,29.0399328 32.4671717,22.883904 C32.4671717,16.7278752 27.4352462,11.7384615 21.2285354,11.7384615" id="Fill-4"></path>
                        <path d="M34.9646465,9.26153846 C34.9646465,10.6291896 33.8461706,11.7384615 32.4671717,11.7384615 C31.0881728,11.7384615 29.969697,10.6291896 29.969697,9.26153846 C29.969697,7.89388733 31.0881728,6.78461538 32.4671717,6.78461538 C33.8461706,6.78461538 34.9646465,7.89388733 34.9646465,9.26153846" id="Fill-6"></path>
                    </g>
                </g>
            </g>
        </g>
    </g>
</svg>