<?xml version="1.0" encoding="UTF-8"?>
<svg width="46px" height="37px" viewBox="0 0 46 37" version="1.1" xmlns="http://www.w3.org/2000/svg" xmlns:xlink="http://www.w3.org/1999/xlink">
    <!-- Generator: Sketch 39.1 (31720) - http://www.bohemiancoding.com/sketch -->
    <title>Twitter</title>
    <desc>Created with Sketch.</desc>
    <defs></defs>
    <g id="Page-1" stroke="none" stroke-width="1" fill="none" fill-rule="evenodd">
        <g id="Homepage-(Quote-3)" transform="translate(-1003.000000, -2913.000000)" fill="#FFFFFF">
            <g id="SOCIAL-SECTION" transform="translate(-53.000000, 2414.000000)">
                <g id="Social-Icons" transform="translate(1002.000000, 496.000000)">
                    <path d="M94.5795938,8.84975816 C96.5270226,7.6939742 98.0243203,5.86336155 98.7287095,3.68228537 C96.9055847,4.75231761 94.886587,5.52967553 92.7357517,5.94911326 C91.0143302,4.13341395 88.562152,3 85.8481821,3 C80.6349492,3 76.4104979,7.18132809 76.4104979,12.33948 C76.4104979,13.0720979 76.4933672,13.7860742 76.655339,14.4683595 C68.8110056,14.0787485 61.8575172,10.3615981 57.2017688,4.70944176 C56.3900262,6.08892584 55.924828,7.69211004 55.924828,9.40528013 C55.924828,12.6452035 57.5916312,15.5048368 60.1229119,17.1807235 C58.5766459,17.1322551 57.1207828,16.7109532 55.8494923,16.0118904 C55.8476089,16.0510379 55.8476089,16.0901854 55.8476089,16.1293329 C55.8476089,20.655532 59.1021127,24.4304716 63.4188503,25.2879887 C62.6259417,25.502368 61.7934818,25.6160822 60.932771,25.6160822 C60.324435,25.6160822 59.7330495,25.5564289 59.1567311,25.4483071 C60.3564527,29.159865 63.8426138,31.8610439 67.9728955,31.9356106 C64.7428759,34.441052 60.6728628,35.9342503 56.2506551,35.9342503 C55.4897642,35.9342503 54.7382902,35.8913744 54,35.8037586 C58.1773665,38.454605 63.1382247,40 68.4663446,40 C85.8255814,40 95.317884,25.7670798 95.317884,13.4244256 C95.317884,13.0180371 95.3084671,12.6153769 95.2915165,12.2145808 C97.1353587,10.8984784 98.7343596,9.25241838 100,7.37892987 C98.3068293,8.12273277 96.4874713,8.62419387 94.5795938,8.84975816 Z" id="Twitter"></path>
                </g>
            </g>
        </g>
    </g>
</svg>