<?xml version="1.0" encoding="UTF-8"?>
<svg width="30px" height="31px" viewBox="0 0 30 31" version="1.1" xmlns="http://www.w3.org/2000/svg" xmlns:xlink="http://www.w3.org/1999/xlink">
    <!-- Generator: Sketch 40.2 (33826) - http://www.bohemiancoding.com/sketch -->
    <title>Twitter</title>
    <desc>Created with Sketch.</desc>
    <defs></defs>
    <g id="Page-1" stroke="none" stroke-width="1" fill="none" fill-rule="evenodd">
        <g id="Homepage-(Quote-1)-Copy" transform="translate(-937.000000, -1621.000000)">
            <g id="Cast-Slider---Open" transform="translate(-49.000000, 1550.000000)">
                <g id="Social" transform="translate(985.000000, 30.000000)">
                    <g id="Twitter" transform="translate(1.000000, 41.000000)">
                        <path d="M0,15.4545455 C0,7.17027421 6.71390727,0.454545455 15,0.454545455 L15,0.454545455 C23.2842712,0.454545455 30,7.16845272 30,15.4545455 L30,15.4545455 C30,23.7388167 23.2860927,30.4545455 15,30.4545455 L15,30.4545455 C6.71572875,30.4545455 0,23.7406382 0,15.4545455 L0,15.4545455 Z" id="Rectangle-3-Copy-26" fill="#1DA1F2"></path>
                        <path d="M22.7272727,12.7623118 C22.1918828,12.9998901 21.6165917,13.1600619 21.0133103,13.2321095 C21.6290981,12.8629402 22.1025519,12.2782236 22.3252836,11.5815654 C21.7488015,11.9233447 21.1103832,12.1716408 20.4302772,12.3056136 C19.8859542,11.7256605 19.1105619,11.3636364 18.2523896,11.3636364 C16.6039365,11.3636364 15.2681416,12.6991957 15.2681416,14.3467627 C15.2681416,14.5807684 15.2943454,14.8088198 15.3455617,15.0267487 C12.8651401,14.902303 10.6664086,13.7150068 9.19423518,11.9096497 C8.93755769,12.3502712 8.79045946,12.8623447 8.79045946,13.4095489 C8.79045946,14.4444139 9.31751184,15.3578103 10.1179168,15.8931058 C9.62897895,15.8776245 9.16862698,15.7430563 8.76663788,15.5197684 C8.76604234,15.5322725 8.76604234,15.5447767 8.76604234,15.5572808 C8.76604234,17.0029955 9.79513444,18.2087501 11.1601108,18.48265 C10.9093887,18.5511249 10.6461603,18.5874464 10.3739987,18.5874464 C10.1816395,18.5874464 9.99464015,18.5683925 9.81240509,18.5338573 C10.1917637,19.7193672 11.2941071,20.5821516 12.6001251,20.605969 C11.578775,21.4062328 10.2918143,21.8831758 8.89348778,21.8831758 C8.65288985,21.8831758 8.41526963,21.8694808 8.18181818,21.8414954 C9.50272459,22.6882031 11.0713754,23.1818182 12.7561564,23.1818182 C18.2452431,23.1818182 21.2467618,18.6356766 21.2467618,14.6933055 C21.2467618,14.5635008 21.2437841,14.434887 21.2384242,14.3068686 C21.8214573,13.8864919 22.3270702,13.3607233 22.7272727,12.7623118" id="Fill-1" fill="#FFFFFF"></path>
                    </g>
                </g>
            </g>
        </g>
    </g>
</svg>